<?xml version="1.0" encoding="UTF-8"?>
<!DOCTYPE svg PUBLIC "-//W3C//DTD SVG 1.1//EN" "http://www.w3.org/Graphics/SVG/1.1/DTD/svg11.dtd">
<svg xmlns="http://www.w3.org/2000/svg" version="1.1" width="1291px" height="509px" style="shape-rendering:geometricPrecision; text-rendering:geometricPrecision; image-rendering:optimizeQuality; fill-rule:evenodd; clip-rule:evenodd" xmlns:xlink="http://www.w3.org/1999/xlink">
<g><path style="opacity:0.998" fill="#e8202f" d="M 215.5,-0.5 C 226.5,-0.5 237.5,-0.5 248.5,-0.5C 301.308,3.48007 343.141,26.8134 374,69.5C 376.5,73.8333 379,78.1667 381.5,82.5C 363.305,96.5208 344.805,110.187 326,123.5C 301.594,81.8752 265.094,62.7085 216.5,66C 184.198,71.392 159.364,87.892 142,115.5C 113.912,166.008 113.579,216.675 141,267.5C 174.711,315.813 219.545,330.313 275.5,311C 297.553,300.44 316.553,285.94 332.5,267.5C 333.493,258.682 333.827,249.682 333.5,240.5C 307.833,240.5 282.167,240.5 256.5,240.5C 256.5,222.833 256.5,205.167 256.5,187.5C 302.167,187.5 347.833,187.5 393.5,187.5C 393.5,252.5 393.5,317.5 393.5,382.5C 373.5,382.5 353.5,382.5 333.5,382.5C 333.667,367.83 333.5,353.163 333,338.5C 332.283,339.044 331.783,339.711 331.5,340.5C 292.245,379.575 245.245,393.409 190.5,382C 126.978,365.483 83.1449,326.65 59,265.5C 40.7832,215.363 41.1166,165.363 60,115.5C 85.2587,57.5773 128.425,20.4106 189.5,4C 198.269,2.25158 206.935,0.751582 215.5,-0.5 Z"/></g>
<g><path style="opacity:0.997" fill="#e82130" d="M 604.5,-0.5 C 615.5,-0.5 626.5,-0.5 637.5,-0.5C 697.982,7.48961 744.148,37.4896 776,89.5C 812.274,152.789 814.941,217.455 784,283.5C 744.399,355.729 683.232,389.562 600.5,385C 570.621,382.545 543.621,372.712 519.5,355.5C 519.027,354.094 518.027,353.427 516.5,353.5C 485.916,331.707 463.416,303.374 449,268.5C 421.809,196.329 431.476,129.662 478,68.5C 510.799,28.3501 552.966,5.35008 604.5,-0.5 Z M 708.5,270.5 C 707.094,270.973 706.427,271.973 706.5,273.5C 681.979,308.08 648.312,323.247 605.5,319C 565.765,312.378 537.932,290.545 522,253.5C 500.366,199.186 506.7,148.52 541,101.5C 569.831,70.8236 604.998,59.9902 646.5,69C 674.91,77.109 696.41,93.9423 711,119.5C 737.592,170.332 736.759,220.666 708.5,270.5 Z"/></g>
<g><path style="opacity:0.978" fill="#fefefe" d="M 1165.5,66.5 C 1173.5,66.5 1181.5,66.5 1189.5,66.5C 1189.33,101.168 1189.5,135.835 1190,170.5C 1191.64,173.229 1194.14,174.562 1197.5,174.5C 1200.85,173.657 1204.18,173.157 1207.5,173C 1208.68,177.755 1209.68,182.588 1210.5,187.5C 1210.29,188.994 1209.62,190.161 1208.5,191C 1196.77,195.55 1185.1,195.55 1173.5,191C 1169.62,188.072 1167.12,184.239 1166,179.5C 1165.5,141.835 1165.33,104.168 1165.5,66.5 Z"/></g>
<g><path style="opacity:1" fill="#fefefe" d="M 841.5,69.5 C 858.837,69.3334 876.17,69.5001 893.5,70C 920.897,73.0681 938.064,87.9015 945,114.5C 949.666,135.502 945.999,154.835 934,172.5C 922.019,185.406 907.185,192.239 889.5,193C 873.499,193.269 857.499,193.103 841.5,192.5C 841.5,151.5 841.5,110.5 841.5,69.5 Z M 865.5,91.5 C 910.336,86.1642 928.169,105.498 919,149.5C 914.021,161.484 905.188,168.651 892.5,171C 883.506,171.5 874.506,171.666 865.5,171.5C 865.5,144.833 865.5,118.167 865.5,91.5 Z"/></g>
<g><path style="opacity:0.997" fill="#fdfdfd" d="M 995.5,101.5 C 1025.32,98.1895 1044.15,110.856 1052,139.5C 1052.5,144.823 1052.67,150.156 1052.5,155.5C 1029.17,155.5 1005.83,155.5 982.5,155.5C 984.337,169.169 992.17,176.502 1006,177.5C 1014.87,177.151 1021.7,173.318 1026.5,166C 1033.71,166.551 1040.71,168.217 1047.5,171C 1035.23,189.456 1017.9,197.123 995.5,194C 971.797,188.296 958.797,173.296 956.5,149C 958.085,123.598 971.085,107.764 995.5,101.5 Z M 1001.5,118.5 C 1016.29,118.459 1025.29,125.626 1028.5,140C 1012.82,140.833 997.156,140.666 981.5,139.5C 983.921,128.236 990.588,121.236 1001.5,118.5 Z"/></g>
<g><path style="opacity:0.994" fill="#fdfdfd" d="M 1092.5,101.5 C 1103.43,100.646 1114.09,101.812 1124.5,105C 1136,110.162 1142.5,118.995 1144,131.5C 1144.33,144.5 1144.67,157.5 1145,170.5C 1146.26,172.303 1147.93,173.636 1150,174.5C 1150.81,180.749 1150.64,186.916 1149.5,193C 1140.33,196.412 1132.49,194.578 1126,187.5C 1125.08,184.899 1124.41,182.232 1124,179.5C 1108.8,195.407 1091.3,198.573 1071.5,189C 1055.61,173.944 1055.61,158.944 1071.5,144C 1087.22,135.845 1103.38,134.679 1120,140.5C 1121.05,123.907 1113.22,116.741 1096.5,119C 1087.72,120.225 1079.72,123.392 1072.5,128.5C 1069.58,123.659 1066.91,118.659 1064.5,113.5C 1073.2,107.811 1082.53,103.811 1092.5,101.5 Z M 1099.5,150.5 C 1106.32,150.784 1112.99,151.951 1119.5,154C 1122.03,161.209 1120.37,167.209 1114.5,172C 1105.77,177.63 1096.77,178.296 1087.5,174C 1080.84,167.625 1080.84,161.292 1087.5,155C 1091.43,152.972 1095.43,151.472 1099.5,150.5 Z"/></g>
<g><path style="opacity:0.995" fill="#fdfdfd" d="M 1290.5,161.5 C 1290.5,165.167 1290.5,168.833 1290.5,172.5C 1285.77,185.368 1276.44,192.535 1262.5,194C 1247.9,196.08 1234.23,193.413 1221.5,186C 1218.47,183.968 1215.81,181.635 1213.5,179C 1215.96,173.908 1218.79,169.074 1222,164.5C 1229.08,169.787 1236.91,173.621 1245.5,176C 1252.05,177.081 1258.39,176.414 1264.5,174C 1268.65,168.944 1267.99,164.61 1262.5,161C 1249.6,157.702 1237.27,153.035 1225.5,147C 1218.96,140.463 1216.79,132.629 1219,123.5C 1222.57,112.931 1229.74,106.097 1240.5,103C 1258.5,98.4554 1274.67,101.955 1289,113.5C 1286.59,118.975 1283.59,124.309 1280,129.5C 1268.83,119.912 1256.33,117.412 1242.5,122C 1239.83,125.667 1239.83,129.333 1242.5,133C 1251.54,137.125 1260.87,140.458 1270.5,143C 1280.64,145.65 1287.31,151.817 1290.5,161.5 Z"/></g>
<g><path style="opacity:0.102" fill="#f8c6c9" d="M 255.5,187.5 C 301.664,186.501 347.997,186.168 394.5,186.5C 394.5,252.167 394.5,317.833 394.5,383.5C 373.66,383.831 352.993,383.497 332.5,382.5C 332.833,382.5 333.167,382.5 333.5,382.5C 353.5,382.5 373.5,382.5 393.5,382.5C 393.5,317.5 393.5,252.5 393.5,187.5C 347.833,187.5 302.167,187.5 256.5,187.5C 256.167,187.5 255.833,187.5 255.5,187.5 Z"/></g>
<g><path style="opacity:0.996" fill="#e82431" d="M 943.5,307.5 C 943.665,304.482 943.498,301.482 943,298.5C 942.283,299.044 941.783,299.711 941.5,300.5C 940.538,303.757 939.038,306.757 937,309.5C 881.464,368.694 816.298,414.194 741.5,446C 668.206,477.074 591.873,496.407 512.5,504C 490.071,506.458 467.738,507.958 445.5,508.5C 428.5,508.5 411.5,508.5 394.5,508.5C 332.202,506.292 270.536,498.126 209.5,484C 155.545,471.906 104.212,452.906 55.5,427C 36.6079,416.44 19.1079,403.94 3,389.5C 1.78739,387.075 0.620727,384.741 -0.5,382.5C -0.5,378.833 -0.5,375.167 -0.5,371.5C 4.28938,361.066 12.2894,357.233 23.5,360C 26.3771,360.956 29.0438,362.289 31.5,364C 59.7112,386.488 90.7112,404.488 124.5,418C 225.557,456.732 330.224,474.065 438.5,470C 546.935,469.581 650.269,446.581 748.5,401C 801.569,375.646 849.236,342.646 891.5,302C 900.111,293.232 908.111,284.066 915.5,274.5C 916.043,274.44 916.376,274.107 916.5,273.5C 900.18,272.501 883.847,272.167 867.5,272.5C 853.684,271.519 846.518,264.186 846,250.5C 847.732,242.435 852.565,237.268 860.5,235C 879.284,233.859 898.117,233.359 917,233.5C 934.5,233.667 952,233.833 969.5,234C 978.757,234.592 984.257,239.425 986,248.5C 986.976,287.547 986.643,326.547 985,365.5C 979.771,374.021 972.271,376.855 962.5,374C 954.96,372.092 950.793,367.259 950,359.5C 947.286,342.222 945.12,324.889 943.5,307.5 Z"/></g>
<g><path style="opacity:0.537" fill="#f0656e" d="M 255.5,187.5 C 255.833,187.5 256.167,187.5 256.5,187.5C 256.5,205.167 256.5,222.833 256.5,240.5C 282.167,240.5 307.833,240.5 333.5,240.5C 333.827,249.682 333.493,258.682 332.5,267.5C 332.5,258.833 332.5,250.167 332.5,241.5C 306.833,241.5 281.167,241.5 255.5,241.5C 255.5,223.5 255.5,205.5 255.5,187.5 Z"/></g>
<g><path style="opacity:0.455" fill="#f68286" d="M 708.5,270.5 C 708.573,272.027 707.906,273.027 706.5,273.5C 706.427,271.973 707.094,270.973 708.5,270.5 Z"/></g>
<g><path style="opacity:0.282" fill="#f6a8af" d="M 867.5,272.5 C 883.847,272.167 900.18,272.501 916.5,273.5C 916.376,274.107 916.043,274.44 915.5,274.5C 899.5,273.833 883.5,273.167 867.5,272.5 Z"/></g>
<g><path style="opacity:0.204" fill="#f7b0b5" d="M 943.5,307.5 C 942.833,305.167 942.167,302.833 941.5,300.5C 941.783,299.711 942.283,299.044 943,298.5C 943.498,301.482 943.665,304.482 943.5,307.5 Z"/></g>
<g><path style="opacity:0.548" fill="#ee5763" d="M 333.5,382.5 C 333.167,382.5 332.833,382.5 332.5,382.5C 332.829,368.323 332.496,354.323 331.5,340.5C 331.783,339.711 332.283,339.044 333,338.5C 333.5,353.163 333.667,367.83 333.5,382.5 Z"/></g>
<g><path style="opacity:0.455" fill="#f68286" d="M 516.5,353.5 C 518.027,353.427 519.027,354.094 519.5,355.5C 517.973,355.573 516.973,354.906 516.5,353.5 Z"/></g>
</svg>
